<?xml version="1.0" encoding="UTF-8" standalone="no"?>
<!-- Created with Inkscape (http://www.inkscape.org/) -->

<svg
   xmlns:dc="http://purl.org/dc/elements/1.1/"
   xmlns:cc="http://creativecommons.org/ns#"
   xmlns:rdf="http://www.w3.org/1999/02/22-rdf-syntax-ns#"
   xmlns:svg="http://www.w3.org/2000/svg"
   xmlns="http://www.w3.org/2000/svg"
   xmlns:sodipodi="http://sodipodi.sourceforge.net/DTD/sodipodi-0.dtd"
   xmlns:inkscape="http://www.inkscape.org/namespaces/inkscape"
   version="1.1"
   id="svg4587"
   width="304"
   height="236"
   viewBox="0 0 304 236"
   sodipodi:docname="image.svg"
   inkscape:version="0.92.1 r15371">
  <metadata
     id="metadata4593">
    <rdf:RDF>
      <cc:Work
         rdf:about="">
        <dc:format>image/svg+xml</dc:format>
        <dc:type
           rdf:resource="http://purl.org/dc/dcmitype/StillImage" />
        <dc:title></dc:title>
      </cc:Work>
    </rdf:RDF>
  </metadata>
  <defs
     id="defs4591" />
  <sodipodi:namedview
     pagecolor="#ffffff"
     bordercolor="#666666"
     borderopacity="1"
     objecttolerance="10"
     gridtolerance="10"
     guidetolerance="10"
     inkscape:pageopacity="0"
     inkscape:pageshadow="2"
     inkscape:window-width="2560"
     inkscape:window-height="1408"
     id="namedview4589"
     showgrid="false"
     inkscape:zoom="2.8284271"
     inkscape:cx="170.75096"
     inkscape:cy="78.810444"
     inkscape:window-x="0"
     inkscape:window-y="256"
     inkscape:window-maximized="1"
     inkscape:current-layer="svg4587" />
  <g
     id="g5154"
     transform="translate(-75.306883,18.384776)">
    <path
       style="fill:#3eb8d4"
       d="m 235.67404,199.00416 c -27.09863,-5.19397 -30.33628,-3.12756 -47.5818,-20.8498 -10.03772,-10.31519 -15.90285,-9.96695 -14.50223,-12.2332 0.3621,-0.58589 -17.95087,-3.46854 -14.54317,-1.91626 14.22848,6.48145 22.62362,5.14414 32.76004,7.84029 7.12505,1.89516 10.45746,5.40962 16.61091,8.67647 15.32435,8.13564 43.75419,7.55066 64.56676,7.50448 17.00457,-0.0377 17.76895,-0.12962 27,-3.246 28.01464,-9.45765 37.49521,-31.82698 46.15316,-58.69005 2.49303,-7.73513 8.39435,-13.03175 8.37354,-26.681977 C 354.48435,81.796737 350.75,74.596223 343.98144,60.988769 333.44245,39.801263 312.35297,15.101224 288.3113,8.1789867 281.46558,6.2079217 268.49985,5.1786509 254.30688,5.1677459 c -14.55846,-0.01119 -25.1607,2.7392007 -31.77818,4.8162887 -15.9353,5.0017534 -20.2712,4.7363724 -32.22817,16.0159664 -3.73863,3.526835 -4.79491,21.615223 -5.37214,21.615223 -1.37116,0 -0.71855,-14.467751 -1.88837,-15.615302 -1.38969,-1.363247 -9.46473,3.30756 0.52049,-6.670215 46.17915,-46.144696 101.00341,-44.803127 149.56542,-0.09048 31.39284,28.904433 36.12915,61.317178 23.49057,102.572693 -5.17949,16.90717 -9.46666,29.11213 -23.05001,42.74208 -17.15495,17.2138 -28.3813,22.09853 -52.38093,27.99544 -12.97832,3.18889 -33.81518,2.69655 -45.51152,0.45472 z m 51.04705,10.34938 C 335.1361,196.53442 368.58392,158.20657 373.86741,109.49257 377.51749,75.838692 352.49974,48.864449 326.00027,26.253862 308.26061,11.117549 297.66462,2.720504 274.26666,-1.6956637 260.83528,-4.2307217 238.74225,-13.513323 225.22109,-9.928727 c -21.73577,5.7623707 -38.81133,15.7120387 -55.25,32.19333 -5.6375,5.652117 -10.24326,10.855737 -10.23502,11.563599 0.008,0.707862 22.22402,-9.404433 23.30395,-1.82828 l 2.07578,14.562368 6.55264,-6.292142 c 11.81402,-11.34434 25.31325,-19.062708 41.55265,-23.758292 11.43649,-3.306834 33.14597,-3.307474 45.4995,-0.0013 25.89555,6.930344 46.70001,23.662442 57.94765,46.604708 6.8144,13.899616 8.46578,21.1065 8.47816,36.999996 0.0121,15.53657 8.22082,26.52373 1.22385,40.07115 -8.58945,16.63076 -31.84062,26.83542 -49.14916,35.46786 -15.06561,7.5138 -22.90883,9.30621 -41,9.36973 -12.39437,0.0435 -16.38967,-0.32497 -23,-2.12124 -9.23642,-2.50988 -18.07196,-6.22326 -24.5,-10.29682 -2.475,-1.56845 -8.55,-3.84016 -13.5,-5.04825 -10.30346,-2.51464 -19.95909,-5.94995 -33.38328,-11.8772 -5.1608,-2.27868 -9.78452,-4.0093 -10.27493,-3.84583 -1.59597,0.53199 9.38058,16.03425 17.11469,24.1712 9.82866,10.3406 21.13523,18.62521 33.54352,24.57817 20.49472,9.8325 31.64924,12.13177 56.5,11.64631 15.83131,-0.30926 15.98132,-12.74506 24.11091,-14.89758 z m -84.5,-53.24482 c -12.65677,-2.39756 -27.22029,-8.10791 -58,-22.74177 -25.08878,-11.92818 -36.48436,-16.59376 -48.250004,-19.75452 -4.5375,-1.21897 -8.25,-2.59967 -8.25,-3.06822 0,-1.24306 6.417672,-2.73917 15.002154,-3.49735 16.85683,-1.48879 32.58035,3.26593 75.56531,22.85058 33.6484,15.33076 55.41672,17.36056 75.73926,7.06235 2.69068,-1.36347 5.12665,-2.24453 5.41327,-1.95792 1.07451,1.07452 -6.15345,8.82161 -12.36775,13.25604 -12.13857,8.6619 -26.91586,11.24848 -44.85224,7.85081 z m 5,-31.14082 c -14.66817,-3.1102 -30.89536,-9.53828 -64,-25.352326 -26.98277,-12.88964 -40.44416,-18.179976 -55.311004,-21.737286 -8.937409,-2.138526 0.95889,-5.399497 16.811004,-5.539464 17.0533,-0.150573 32.61028,4.257825 61,17.28563 36.97465,16.967366 50.26135,21.198636 67,21.336756 12.08209,0.0997 18.50659,-1.22909 28.9085,-5.97918 4.07468,-1.86073 7.61643,-3.17522 7.87055,-2.92109 0.84073,0.84073 -6.04615,8.71891 -11.14532,12.74956 -13.63608,10.77871 -31.48352,14.32399 -51.13373,10.1574 z M 222.18698,92.540854 C 204.81099,90.899324 186.92051,84.397534 146.72109,65.114877 122.07257,53.2916 108.31497,47.462614 97.085598,44.084715 81.155488,39.292791 80.350041,39.00209 79.987208,37.913591 c -0.683613,-2.050839 9.978048,-3.799781 22.733882,-3.729273 21.27975,0.117624 31.01289,3.077052 73,22.196169 35.83383,16.317178 46.59482,19.514383 66,19.609308 13.81815,0.06759 21.19093,-1.586579 32.5028,-7.292406 3.25841,-1.643575 6.12011,-2.792585 6.35934,-2.553355 0.85326,0.853257 -5.18059,8.491211 -9.51132,12.039919 -14.69692,12.043021 -28.97885,16.237441 -48.88493,14.356901 z"
       id="path5158"
       inkscape:connector-curvature="0"
       sodipodi:nodetypes="csscsscsscsssssscsssssscssssscscsscsssscssssssssccssssssscsssssssssccssssssssscsss" />
    <path
       style="fill:#1270b5"
       d="m 231.5061,210.69549 c -12.13789,-2.64101 -17.75963,-4.58207 -29.28501,-10.11146 -12.40829,-5.95296 -23.71486,-14.23757 -33.54352,-24.57817 -7.7341,-8.13695 -18.71065,-23.63921 -17.11469,-24.1712 0.49042,-0.16347 5.11414,1.56715 10.27494,3.84583 13.42419,5.92725 23.07981,9.36256 33.38327,11.8772 4.95,1.20809 11.025,3.4798 13.5,5.04825 6.42804,4.07356 15.26358,7.78694 24.5,10.29682 6.61033,1.79627 10.60563,2.16475 23,2.12124 18.09117,-0.0635 25.93439,-1.85593 41,-9.36973 17.30854,-8.63244 30.30666,-21.31197 38.89611,-37.94273 6.99697,-13.54742 9.0413,-22.05971 9.0292,-37.59628 -0.0124,-15.8935 -1.66376,-23.10038 -8.47816,-37 -11.24764,-22.94227 -32.0521,-39.674365 -57.94765,-46.604709 -12.35353,-3.306134 -34.06301,-3.305494 -45.4995,0.0013 -16.2394,4.695584 -29.73863,12.413949 -41.55265,23.758289 l -6.55264,6.29215 -12.68237,-5.72354 c -6.9753,-3.1479 -12.68911,-6.30265 -12.69735,-7.01051 -0.008,-0.70786 4.59751,-5.91148 10.23501,-11.563602 16.43867,-16.481291 33.51423,-26.430959 55.25,-32.193329 13.52116,-3.584596 38.44262,-4.555043 51.874,-2.019985 23.39796,4.416167 41.06501,12.813212 58.80467,27.949525 26.49947,22.610591 41.61773,59.837881 37.96765,93.491761 -5.28349,48.714 -38.73131,87.04185 -87.14632,99.86097 -8.12959,2.15252 -12.16869,2.5675 -28,2.87676 -15.39174,0.30068 -19.96424,0.0428 -27.21499,-1.53485 z"
       id="path5156"
       inkscape:connector-curvature="0" />
  </g>
</svg>
